0
SECTION
2
HEADER
9
$INSUNITS
70
4
9
$ACADVER
1
AC1014
9
$HANDSEED
5
FFFF
0
ENDSEC
0
SECTION
2
TABLES
0
TABLE
2
VPORT
5
8
100
AcDbSymbolTable
0
ENDTAB
0
TABLE
2
LTYPE
5
5
100
AcDbSymbolTable
0
LTYPE
5
14
100
AcDbSymbolTableRecord
100
AcDbLinetypeTableRecord
2
BYBLOCK
70
0
0
LTYPE
5
15
100
AcDbSymbolTableRecord
100
AcDbLinetypeTableRecord
2
BYLAYER
70
0
0
LTYPE
5
16
100
AcDbSymbolTableRecord
100
AcDbLinetypeTableRecord
2
DASHED
70
0
3
Dashed __ __ __ __ __ __ __ __ __ __ __ __ __ _
72
65
73
2
40
0.75
49
0.5
74
0
49
-0.25
74
0
0
ENDTAB
0
TABLE
2
LAYER
5
2
100
AcDbSymbolTable
70
3
0
LAYER
5
50
100
AcDbSymbolTableRecord
100
AcDbLayerTableRecord
2
1
70
0
62
7
6
DASHED
0
LAYER
5
51
100
AcDbSymbolTableRecord
100
AcDbLayerTableRecord
2
0
70
0
62
7
6
CONTINUOUS
0
ENDTAB
0
TABLE
2
STYLE
5
3
100
AcDbSymbolTable
70
1
0
STYLE
5
11
100
AcDbSymbolTableRecord
100
AcDbTextStyleTableRecord
2
STANDARD
70
0
0
ENDTAB
0
TABLE
2
VIEW
5
6
100
AcDbSymbolTable
70
0
0
ENDTAB
0
TABLE
2
UCS
5
7
100
AcDbSymbolTable
70
0
0
ENDTAB
0
TABLE
2
APPID
5
9
100
AcDbSymbolTable
70
2
0
APPID
5
12
100
AcDbSymbolTableRecord
100
AcDbRegAppTableRecord
2
ACAD
70
0
0
ENDTAB
0
TABLE
2
DIMSTYLE
5
A
100
AcDbSymbolTable
70
1
0
ENDTAB
0
TABLE
2
BLOCK_RECORD
5
1
100
AcDbSymbolTable
70
1
0
BLOCK_RECORD
5
1F
100
AcDbSymbolTableRecord
100
AcDbBlockTableRecord
2
*MODEL_SPACE
0
BLOCK_RECORD
5
1B
100
AcDbSymbolTableRecord
100
AcDbBlockTableRecord
2
*PAPER_SPACE
0
ENDTAB
0
ENDSEC
0
SECTION
2
BLOCKS
0
BLOCK
5
20
100
AcDbEntity
100
AcDbBlockBegin
2
*MODEL_SPACE
0
ENDBLK
5
21
100
AcDbEntity
100
AcDbBlockEnd
0
BLOCK
5
1C
100
AcDbEntity
100
AcDbBlockBegin
2
*PAPER_SPACE
0
ENDBLK
5
1D
100
AcDbEntity
100
AcDbBlockEnd
0
ENDSEC
0
SECTION
2
ENTITIES
0
LWPOLYLINE
5
100
100
AcDbEntity
8
0
100
AcDbPolyline
90
4
70
1
43
0.0
10
-62.499999999999986
20
-519.75317545000019
10
-187.5
20
-519.75317545000007
10
-187.49999999999997
20
-354.75317545000019
10
-62.5
20
-354.75317545000019
0
LWPOLYLINE
5
101
100
AcDbEntity
8
0
100
AcDbPolyline
90
223
70
1
43
0.0
10
-134
20
-332
10
-140
20
-332
10
-140
20
-329
10
-146
20
-329
10
-146
20
-332
10
-152
20
-332
10
-152
20
-329
10
-158
20
-329
10
-158
20
-332
10
-164.00000000000003
20
-332
10
-164.00000000000003
20
-329
10
-170
20
-329
10
-170
20
-332
10
-176
20
-332
10
-176
20
-329
10
-187.5
20
-329
10
-193.25000000000003
20
-338.95929210000008
10
-190.65192380000002
20
-340.45929210000003
10
-193.65192380000002
20
-345.65544460000007
10
-196.25
20
-344.15544460000007
10
-199.25
20
-349.35159700000008
10
-196.65192380000005
20
-350.85159700000008
10
-199.65192380000005
20
-356.04774939999999
10
-202.25
20
-354.54774939999999
10
-205.25000000000003
20
-359.7439018
10
-202.65192380000002
20
-361.2439018
10
-205.65192380000002
20
-366.44005429999999
10
-208.25000000000003
20
-364.94005430000004
10
-211.25
20
-370.1362067
10
-208.65192380000002
20
-371.6362067
10
-211.65192380000002
20
-376.83235910000002
10
-214.25
20
-375.33235910000002
10
-217.25
20
-380.52851150000004
10
-214.65192380000002
20
-382.02851150000009
10
-217.65192380000002
20
-387.2246639
10
-220.25000000000003
20
-385.7246639
10
-223.25000000000003
20
-390.92081640000004
10
-220.65192379999999
20
-392.42081640000004
10
-223.65192379999999
20
-397.6169688
10
-226.25
20
-396.11696880000005
10
-229.25
20
-401.31312119999996
10
-226.65192380000002
20
-402.81312119999996
10
-229.65192380000002
20
-408.00927360000003
10
-232.25
20
-406.50927360000003
10
-235.25000000000003
20
-411.70542610000012
10
-232.65192380000002
20
-413.20542610000012
10
-235.65192379999999
20
-418.40157850000003
10
-238.25000000000003
20
-416.90157850000003
10
-241.25
20
-422.09773089999999
10
-238.65192379999999
20
-423.59773089999999
10
-241.65192380000002
20
-428.79388330000012
10
-244.25
20
-427.29388330000006
10
-250
20
-437.2531755
10
-244.25
20
-447.21246760000008
10
-241.65192380000002
20
-445.71246760000008
10
-238.65192379999999
20
-450.9086200000001
10
-241.25
20
-452.40862000000004
10
-238.25000000000003
20
-457.60477250000002
10
-235.65192379999999
20
-456.10477250000002
10
-232.65192380000002
20
-461.30092490000004
10
-235.25000000000003
20
-462.80092490000004
10
-232.25
20
-467.9970773
10
-229.65192380000002
20
-466.4970773
10
-226.65192380000002
20
-471.69322970000002
10
-229.25
20
-473.19322970000002
10
-226.25
20
-478.38938219999994
10
-223.65192379999999
20
-476.8893822
10
-220.65192379999999
20
-482.08553460000007
10
-223.25000000000003
20
-483.58553460000002
10
-220.25000000000003
20
-488.78168700000003
10
-217.65192380000002
20
-487.28168700000003
10
-214.65192380000002
20
-492.47783939999999
10
-217.25
20
-493.97783939999999
10
-214.25
20
-499.17399180000012
10
-211.65192380000002
20
-497.67399180000012
10
-208.65192380000002
20
-502.87014429999999
10
-211.25
20
-504.37014430000005
10
-208.25000000000003
20
-509.56629670000007
10
-205.65192380000002
20
-508.06629670000007
10
-202.65192380000002
20
-513.26244910000003
10
-205.25000000000003
20
-514.76244910000003
10
-202.25
20
-519.95860149999999
10
-199.65192380000005
20
-518.45860149999999
10
-196.65192380000005
20
-523.65475400000014
10
-199.25
20
-525.15475400000003
10
-196.25
20
-530.35090639999999
10
-193.65192380000002
20
-528.85090639999999
10
-190.65192380000002
20
-534.04705880000006
10
-193.25000000000003
20
-535.54705880000006
10
-187.5
20
-545.50635089999992
10
-176
20
-545.50635089999992
10
-176
20
-542.50635089999992
10
-170
20
-542.50635089999992
10
-170
20
-545.50635089999992
10
-164.00000000000003
20
-545.50635089999992
10
-164.00000000000003
20
-542.50635089999992
10
-158
20
-542.50635089999992
10
-158
20
-545.50635089999992
10
-152
20
-545.50635089999992
10
-152
20
-542.50635089999992
10
-146
20
-542.50635089999992
10
-146
20
-545.50635089999992
10
-140
20
-545.50635089999992
10
-140
20
-542.50635089999992
10
-134
20
-542.50635089999992
10
-134
20
-545.50635089999992
10
-128
20
-545.50635089999992
10
-128
20
-542.50635089999992
10
-122.00000000000001
20
-542.50635089999992
10
-122.00000000000001
20
-545.50635089999992
10
-116.00000000000001
20
-545.50635089999992
10
-116.00000000000001
20
-542.50635089999992
10
-110
20
-542.50635089999992
10
-110
20
-545.50635089999992
10
-104
20
-545.50635089999992
10
-104
20
-542.50635089999992
10
-98
20
-542.50635089999992
10
-98
20
-545.50635089999992
10
-92.000000000000014
20
-545.50635089999992
10
-92.000000000000014
20
-542.50635089999992
10
-86
20
-542.50635089999992
10
-86
20
-545.50635089999992
10
-80
20
-545.50635089999992
10
-80
20
-542.50635089999992
10
-74
20
-542.50635089999992
10
-74
20
-545.50635089999992
10
-62.5
20
-545.50635089999992
10
-56.750000000000007
20
-535.54705880000006
10
-59.348076200000008
20
-534.04705880000006
10
-56.348076200000001
20
-528.85090639999999
10
-53.75
20
-530.35090639999999
10
-50.75
20
-525.15475400000003
10
-53.348076200000001
20
-523.65475400000014
10
-50.348076200000008
20
-518.45860149999999
10
-47.75
20
-519.95860149999999
10
-44.750000000000007
20
-514.76244910000003
10
-47.348076200000008
20
-513.26244910000003
10
-44.348076200000001
20
-508.06629670000007
10
-41.75
20
-509.56629670000007
10
-38.75
20
-504.37014430000005
10
-41.348076200000001
20
-502.87014429999999
10
-38.348076200000001
20
-497.67399180000012
10
-35.75
20
-499.17399180000012
10
-32.75
20
-493.97783939999999
10
-35.348076200000008
20
-492.47783939999999
10
-32.348076200000001
20
-487.28168700000003
10
-29.75
20
-488.78168700000003
10
-26.750000000000004
20
-483.58553460000002
10
-29.348076200000001
20
-482.08553460000007
10
-26.348076200000001
20
-476.8893822
10
-23.75
20
-478.38938219999994
10
-20.75
20
-473.19322970000002
10
-23.348076199999998
20
-471.69322970000002
10
-20.348076200000005
20
-466.4970773
10
-17.750000000000004
20
-467.9970773
10
-14.749999999999996
20
-462.80092490000004
10
-17.348076199999998
20
-461.30092490000004
10
-14.3480762
20
-456.10477250000002
10
-11.749999999999998
20
-457.60477250000002
10
-8.75
20
-452.40862000000004
10
-11.348076200000001
20
-450.9086200000001
10
-8.3480762000000031
20
-445.71246760000008
10
-5.7500000000000018
20
-447.21246760000008
10
0
20
-437.2531755
10
-2.7500000000000036
20
-432.49003579999999
10
-5.7500000000000018
20
-427.29388330000006
10
-8.3480762000000031
20
-428.79388330000012
10
-11.348076200000001
20
-423.59773089999999
10
-8.75
20
-422.09773089999999
10
-11.749999999999998
20
-416.90157850000003
10
-14.3480762
20
-418.40157850000003
10
-17.348076199999998
20
-413.20542610000012
10
-14.749999999999996
20
-411.70542610000012
10
-17.750000000000004
20
-406.50927360000003
10
-20.348076200000005
20
-408.00927360000003
10
-23.348076199999998
20
-402.81312119999996
10
-20.75
20
-401.31312119999996
10
-23.75
20
-396.11696880000005
10
-26.348076200000001
20
-397.6169688
10
-29.348076200000001
20
-392.42081640000004
10
-26.750000000000004
20
-390.92081640000004
10
-29.75
20
-385.7246639
10
-32.348076200000001
20
-387.2246639
10
-35.348076200000008
20
-382.02851150000009
10
-32.75
20
-380.52851150000004
10
-35.75
20
-375.33235910000002
10
-38.348076200000001
20
-376.83235910000002
10
-41.348076200000001
20
-371.6362067
10
-38.75
20
-370.1362067
10
-41.75
20
-364.94005430000004
10
-44.348076200000001
20
-366.44005429999999
10
-47.348076200000008
20
-361.2439018
10
-44.750000000000007
20
-359.7439018
10
-47.75
20
-354.54774939999999
10
-50.348076200000008
20
-356.04774939999999
10
-53.348076200000001
20
-350.85159700000008
10
-50.75
20
-349.35159700000008
10
-53.75
20
-344.15544460000007
10
-56.348076200000001
20
-345.65544460000007
10
-59.348076200000008
20
-340.45929210000003
10
-56.750000000000007
20
-338.95929210000008
10
-62.5
20
-329
10
-74
20
-329
10
-74
20
-332
10
-80
20
-332
10
-80
20
-329
10
-86
20
-329
10
-86
20
-332
10
-92.000000000000014
20
-332
10
-92.000000000000014
20
-329
10
-98
20
-329
10
-98
20
-332
10
-104
20
-332
10
-104
20
-329
10
-110
20
-329
10
-110
20
-332
10
-116.00000000000001
20
-332
10
-116.00000000000001
20
-329
10
-122.00000000000001
20
-329
10
-122.00000000000001
20
-332
10
-128
20
-332
10
-128
20
-329
10
-134
20
-329
0
ENDSEC
0
SECTION
2
OBJECTS
0
DICTIONARY
5
C
100
AcDbDictionary
3
ACAD_GROUP
350
D
3
ACAD_MLINESTYLE
350
17
0
DICTIONARY
5
D
100
AcDbDictionary
0
DICTIONARY
5
1A
330
C
100
AcDbDictionary
0
DICTIONARY
5
17
100
AcDbDictionary
0
ENDSEC
0
EOF
