0
SECTION
2
HEADER
9
$INSUNITS
70
4
9
$ACADVER
1
AC1014
9
$HANDSEED
5
FFFF
0
ENDSEC
0
SECTION
2
TABLES
0
TABLE
2
VPORT
5
8
100
AcDbSymbolTable
0
ENDTAB
0
TABLE
2
LTYPE
5
5
100
AcDbSymbolTable
0
LTYPE
5
14
100
AcDbSymbolTableRecord
100
AcDbLinetypeTableRecord
2
BYBLOCK
70
0
0
LTYPE
5
15
100
AcDbSymbolTableRecord
100
AcDbLinetypeTableRecord
2
BYLAYER
70
0
0
LTYPE
5
16
100
AcDbSymbolTableRecord
100
AcDbLinetypeTableRecord
2
DASHED
70
0
3
Dashed __ __ __ __ __ __ __ __ __ __ __ __ __ _
72
65
73
2
40
0.75
49
0.5
74
0
49
-0.25
74
0
0
ENDTAB
0
TABLE
2
LAYER
5
2
100
AcDbSymbolTable
70
3
0
LAYER
5
50
100
AcDbSymbolTableRecord
100
AcDbLayerTableRecord
2
1
70
0
62
7
6
DASHED
0
LAYER
5
51
100
AcDbSymbolTableRecord
100
AcDbLayerTableRecord
2
0
70
0
62
7
6
CONTINUOUS
0
ENDTAB
0
TABLE
2
STYLE
5
3
100
AcDbSymbolTable
70
1
0
STYLE
5
11
100
AcDbSymbolTableRecord
100
AcDbTextStyleTableRecord
2
STANDARD
70
0
0
ENDTAB
0
TABLE
2
VIEW
5
6
100
AcDbSymbolTable
70
0
0
ENDTAB
0
TABLE
2
UCS
5
7
100
AcDbSymbolTable
70
0
0
ENDTAB
0
TABLE
2
APPID
5
9
100
AcDbSymbolTable
70
2
0
APPID
5
12
100
AcDbSymbolTableRecord
100
AcDbRegAppTableRecord
2
ACAD
70
0
0
ENDTAB
0
TABLE
2
DIMSTYLE
5
A
100
AcDbSymbolTable
70
1
0
ENDTAB
0
TABLE
2
BLOCK_RECORD
5
1
100
AcDbSymbolTable
70
1
0
BLOCK_RECORD
5
1F
100
AcDbSymbolTableRecord
100
AcDbBlockTableRecord
2
*MODEL_SPACE
0
BLOCK_RECORD
5
1B
100
AcDbSymbolTableRecord
100
AcDbBlockTableRecord
2
*PAPER_SPACE
0
ENDTAB
0
ENDSEC
0
SECTION
2
BLOCKS
0
BLOCK
5
20
100
AcDbEntity
100
AcDbBlockBegin
2
*MODEL_SPACE
0
ENDBLK
5
21
100
AcDbEntity
100
AcDbBlockEnd
0
BLOCK
5
1C
100
AcDbEntity
100
AcDbBlockBegin
2
*PAPER_SPACE
0
ENDBLK
5
1D
100
AcDbEntity
100
AcDbBlockEnd
0
ENDSEC
0
SECTION
2
ENTITIES
0
CIRCLE
5
100
100
AcDbEntity
8
0
100
AcDbCircle
10
-39.196152400000003
20
-305
30
0
40
1.6500000000000181
210
0
220
-0
230
1
0
CIRCLE
5
101
100
AcDbEntity
8
0
100
AcDbCircle
10
-39.196152400000003
20
-227
30
0
40
1.6499999999999915
210
0
220
-0
230
1
0
LWPOLYLINE
5
102
100
AcDbEntity
8
0
100
AcDbPolyline
90
136
70
1
43
0.0
10
-128.46410160000002
20
-326
10
-5.1961524000000026
20
-326
10
-5.1961524000000026
20
-315
10
0
20
-315
10
0
20
-309
10
-5.1961524000000026
20
-309
10
-5.1961524000000026
20
-303
10
0
20
-303
10
0
20
-297
10
-5.1961524000000026
20
-297
10
-5.1961524000000026
20
-291
10
0
20
-291
10
0
20
-285
10
-5.1961524000000026
20
-285
10
-5.1961524000000026
20
-279
10
0
20
-279
10
0
20
-273
10
-5.1961524000000026
20
-273
10
-5.1961524000000026
20
-267
10
0
20
-267
10
0
20
-261
10
-5.1961524000000026
20
-261
10
-5.1961524000000026
20
-255
10
0
20
-255
10
0
20
-249.00000000000003
10
-5.1961524000000026
20
-249.00000000000003
10
-5.1961524000000026
20
-243
10
0
20
-243
10
0
20
-237.00000000000003
10
-5.1961524000000026
20
-237.00000000000003
10
-5.1961524000000026
20
-231
10
0
20
-231
10
0
20
-225
10
-5.1961524000000026
20
-225
10
-5.1961524000000026
20
-219.00000000000003
10
0
20
-219.00000000000003
10
0
20
-213
10
-5.1961524000000026
20
-213
10
-5.1961524000000026
20
-207.00000000000003
10
0
20
-207.00000000000003
10
0
20
-201
10
-5.1961524000000026
20
-201
10
-5.1961524000000026
20
-195
10
0
20
-195
10
0
20
-189.00000000000003
10
-5.1961524000000026
20
-189.00000000000003
10
-5.1961524000000026
20
-183
10
0
20
-183
10
0
20
-177
10
-5.1961524000000026
20
-177
10
-5.1961524000000026
20
-169.00000000000003
10
-13.232050800000001
20
-169.00000000000003
10
-13.232050800000001
20
-166
10
-19.2320508
20
-166
10
-19.2320508
20
-169.00000000000003
10
-25.232050800000003
20
-169.00000000000003
10
-25.232050800000003
20
-166
10
-31.232050800000003
20
-166
10
-31.232050800000003
20
-169.00000000000003
10
-37.232050799999996
20
-169.00000000000003
10
-37.232050799999996
20
-166
10
-43.232050800000003
20
-166
10
-43.232050800000003
20
-169.00000000000003
10
-49.232050799999996
20
-169.00000000000003
10
-49.232050799999996
20
-166
10
-55.232050799999996
20
-166
10
-55.232050799999996
20
-169.00000000000003
10
-61.232050799999989
20
-169.00000000000003
10
-61.232050799999989
20
-166
10
-67.232050799999996
20
-166
10
-67.232050799999996
20
-169.00000000000003
10
-73.232050799999996
20
-169.00000000000003
10
-73.232050799999996
20
-166
10
-79.232050799999996
20
-166
10
-79.232050799999996
20
-169.00000000000003
10
-85.232050799999996
20
-169.00000000000003
10
-85.232050799999996
20
-166
10
-91.232050799999996
20
-166
10
-91.232050799999996
20
-169.00000000000003
10
-97.232050799999996
20
-169.00000000000003
10
-97.232050799999996
20
-166
10
-103.23205080000001
20
-166
10
-103.23205080000001
20
-169.00000000000003
10
-109.23205080000001
20
-169.00000000000003
10
-109.23205080000001
20
-166
10
-115.2320508
20
-166
10
-115.2320508
20
-169.00000000000003
10
-128.46410160000002
20
-169.00000000000003
10
-128.46410160000002
20
-177
10
-123.2679492
20
-177
10
-123.2679492
20
-183
10
-128.46410160000002
20
-183
10
-128.46410160000002
20
-189.00000000000003
10
-123.2679492
20
-189.00000000000003
10
-123.2679492
20
-195
10
-128.46410160000002
20
-195
10
-128.46410160000002
20
-201
10
-123.2679492
20
-201
10
-123.2679492
20
-207.00000000000003
10
-128.46410160000002
20
-207.00000000000003
10
-128.46410160000002
20
-213
10
-123.2679492
20
-213
10
-123.2679492
20
-219.00000000000003
10
-128.46410160000002
20
-219.00000000000003
10
-128.46410160000002
20
-225
10
-123.2679492
20
-225
10
-123.2679492
20
-231
10
-128.46410160000002
20
-231
10
-128.46410160000002
20
-237.00000000000003
10
-123.2679492
20
-237.00000000000003
10
-123.2679492
20
-243
10
-128.46410160000002
20
-243
10
-128.46410160000002
20
-249.00000000000003
10
-123.2679492
20
-249.00000000000003
10
-123.2679492
20
-255
10
-128.46410160000002
20
-255
10
-128.46410160000002
20
-261
10
-123.2679492
20
-261
10
-123.2679492
20
-267
10
-128.46410160000002
20
-267
10
-128.46410160000002
20
-273
10
-123.2679492
20
-273
10
-123.2679492
20
-279
10
-128.46410160000002
20
-279
10
-128.46410160000002
20
-285
10
-123.2679492
20
-285
10
-123.2679492
20
-291
10
-128.46410160000002
20
-291
10
-128.46410160000002
20
-297
10
-123.2679492
20
-297
10
-123.2679492
20
-303
10
-128.46410160000002
20
-303
10
-128.46410160000002
20
-309
10
-123.2679492
20
-309
10
-123.2679492
20
-315
10
-128.46410160000002
20
-315
0
LWPOLYLINE
5
103
100
AcDbEntity
8
0
100
AcDbPolyline
90
140
70
1
43
0.0
10
-178.19615240000002
20
-296
10
-178.19615240000002
20
-326
10
-136.66025400000001
20
-326
10
-136.66025400000001
20
-315
10
-131.46410159999999
20
-315
10
-131.46410159999999
20
-309
10
-136.66025400000001
20
-309
10
-136.66025400000001
20
-303
10
-131.46410159999999
20
-303
10
-131.46410159999999
20
-297
10
-136.66025400000001
20
-297
10
-136.66025400000001
20
-291
10
-131.46410159999999
20
-291
10
-131.46410159999999
20
-285
10
-136.66025400000001
20
-285
10
-136.66025400000001
20
-279
10
-131.46410159999999
20
-279
10
-131.46410159999999
20
-273
10
-136.66025400000001
20
-273
10
-136.66025400000001
20
-267
10
-131.46410159999999
20
-267
10
-131.46410159999999
20
-261
10
-136.66025400000001
20
-261
10
-136.66025400000001
20
-255
10
-131.46410159999999
20
-255
10
-131.46410159999999
20
-249.00000000000003
10
-136.66025400000001
20
-249.00000000000003
10
-136.66025400000001
20
-243
10
-131.46410159999999
20
-243
10
-131.46410159999999
20
-237.00000000000003
10
-136.66025400000001
20
-237.00000000000003
10
-136.66025400000001
20
-231
10
-131.46410159999999
20
-231
10
-131.46410159999999
20
-225
10
-136.66025400000001
20
-225
10
-136.66025400000001
20
-219.00000000000003
10
-131.46410159999999
20
-219.00000000000003
10
-131.46410159999999
20
-213
10
-136.66025400000001
20
-213
10
-136.66025400000001
20
-207.00000000000003
10
-131.46410159999999
20
-207.00000000000003
10
-131.46410159999999
20
-201
10
-136.66025400000001
20
-201
10
-136.66025400000001
20
-195
10
-131.46410159999999
20
-195
10
-131.46410159999999
20
-189.00000000000003
10
-136.66025400000001
20
-189.00000000000003
10
-136.66025400000001
20
-183
10
-131.46410159999999
20
-183
10
-131.46410159999999
20
-177
10
-136.66025400000001
20
-177
10
-136.66025400000001
20
-169.00000000000003
10
-144.69615239999999
20
-169.00000000000003
10
-144.69615239999999
20
-166
10
-150.69615239999999
20
-166
10
-150.69615239999999
20
-169.00000000000003
10
-156.69615239999999
20
-169.00000000000003
10
-156.69615239999999
20
-166
10
-162.69615240000002
20
-166
10
-162.69615240000002
20
-169.00000000000003
10
-168.69615239999999
20
-169.00000000000003
10
-168.69615239999999
20
-166
10
-174.69615239999999
20
-166
10
-174.69615239999999
20
-169.00000000000003
10
-180.69615240000002
20
-169.00000000000003
10
-180.69615240000002
20
-166
10
-186.69615239999999
20
-166
10
-186.69615239999999
20
-169.00000000000003
10
-192.69615240000002
20
-169.00000000000003
10
-192.69615240000002
20
-166
10
-198.69615240000002
20
-166
10
-198.69615240000002
20
-169.00000000000003
10
-204.69615239999999
20
-169.00000000000003
10
-204.69615239999999
20
-166
10
-210.69615240000005
20
-166
10
-210.69615240000005
20
-169.00000000000003
10
-216.69615240000002
20
-169.00000000000003
10
-216.69615240000002
20
-166
10
-222.69615240000005
20
-166
10
-222.69615240000005
20
-169.00000000000003
10
-228.69615240000002
20
-169.00000000000003
10
-228.69615240000002
20
-166
10
-234.69615240000002
20
-166
10
-234.69615240000002
20
-169.00000000000003
10
-240.69615240000005
20
-169.00000000000003
10
-240.69615240000005
20
-166
10
-246.69615240000002
20
-166
10
-246.69615240000002
20
-169.00000000000003
10
-259.92820319999998
20
-169.00000000000003
10
-259.92820319999998
20
-177
10
-254.7320508
20
-177
10
-254.7320508
20
-183
10
-259.92820319999998
20
-183
10
-259.92820319999998
20
-189.00000000000003
10
-254.7320508
20
-189.00000000000003
10
-254.7320508
20
-195
10
-259.92820319999998
20
-195
10
-259.92820319999998
20
-201
10
-254.7320508
20
-201
10
-254.7320508
20
-207.00000000000003
10
-259.92820319999998
20
-207.00000000000003
10
-259.92820319999998
20
-213
10
-254.7320508
20
-213
10
-254.7320508
20
-219.00000000000003
10
-259.92820319999998
20
-219.00000000000003
10
-259.92820319999998
20
-225
10
-254.7320508
20
-225
10
-254.7320508
20
-231
10
-259.92820319999998
20
-231
10
-259.92820319999998
20
-237.00000000000003
10
-254.7320508
20
-237.00000000000003
10
-254.7320508
20
-243
10
-259.92820319999998
20
-243
10
-259.92820319999998
20
-249.00000000000003
10
-254.7320508
20
-249.00000000000003
10
-254.7320508
20
-255
10
-259.92820319999998
20
-255
10
-259.92820319999998
20
-261
10
-254.7320508
20
-261
10
-254.7320508
20
-267
10
-259.92820319999998
20
-267
10
-259.92820319999998
20
-273
10
-254.7320508
20
-273
10
-254.7320508
20
-279
10
-259.92820319999998
20
-279
10
-259.92820319999998
20
-285
10
-254.7320508
20
-285
10
-254.7320508
20
-291
10
-259.92820319999998
20
-291
10
-259.92820319999998
20
-297
10
-254.7320508
20
-297
10
-254.7320508
20
-303
10
-259.92820319999998
20
-303
10
-259.92820319999998
20
-309
10
-254.7320508
20
-309
10
-254.7320508
20
-315
10
-259.92820319999998
20
-315
10
-259.92820319999998
20
-326
10
-213.19615240000002
20
-326
10
-213.19615240000002
20
-296
0
CIRCLE
5
104
100
AcDbEntity
8
0
100
AcDbCircle
10
-302.16025405000011
20
-321
30
0
40
2.5
210
0
220
-0
230
1
0
CIRCLE
5
105
100
AcDbEntity
8
0
100
AcDbCircle
10
-352.16025405000011
20
-321
30
0
40
2.5
210
0
220
-0
230
1
0
CIRCLE
5
106
100
AcDbEntity
8
0
100
AcDbCircle
10
-302.16025405000011
20
-186
30
0
40
2.5
210
0
220
-0
230
1
0
CIRCLE
5
107
100
AcDbEntity
8
0
100
AcDbCircle
10
-352.16025405000011
20
-186
30
0
40
2.5
210
0
220
-0
230
1
0
LWPOLYLINE
5
108
100
AcDbEntity
8
0
100
AcDbPolyline
90
136
70
1
43
0.0
10
-391.39230480000003
20
-326
10
-268.12435570000002
20
-326
10
-268.12435570000002
20
-315
10
-262.92820319999998
20
-315
10
-262.92820319999998
20
-309
10
-268.12435570000002
20
-309
10
-268.12435570000002
20
-303
10
-262.92820319999998
20
-303
10
-262.92820319999998
20
-297
10
-268.12435570000002
20
-297
10
-268.12435570000002
20
-291
10
-262.92820319999998
20
-291
10
-262.92820319999998
20
-285
10
-268.12435570000002
20
-285
10
-268.12435570000002
20
-279
10
-262.92820319999998
20
-279
10
-262.92820319999998
20
-273
10
-268.12435570000002
20
-273
10
-268.12435570000002
20
-267
10
-262.92820319999998
20
-267
10
-262.92820319999998
20
-261
10
-268.12435570000002
20
-261
10
-268.12435570000002
20
-255
10
-262.92820319999998
20
-255
10
-262.92820319999998
20
-249.00000000000003
10
-268.12435570000002
20
-249.00000000000003
10
-268.12435570000002
20
-243
10
-262.92820319999998
20
-243
10
-262.92820319999998
20
-237.00000000000003
10
-268.12435570000002
20
-237.00000000000003
10
-268.12435570000002
20
-231
10
-262.92820319999998
20
-231
10
-262.92820319999998
20
-225
10
-268.12435570000002
20
-225
10
-268.12435570000002
20
-219.00000000000003
10
-262.92820319999998
20
-219.00000000000003
10
-262.92820319999998
20
-213
10
-268.12435570000002
20
-213
10
-268.12435570000002
20
-207.00000000000003
10
-262.92820319999998
20
-207.00000000000003
10
-262.92820319999998
20
-201
10
-268.12435570000002
20
-201
10
-268.12435570000002
20
-195
10
-262.92820319999998
20
-195
10
-262.92820319999998
20
-189.00000000000003
10
-268.12435570000002
20
-189.00000000000003
10
-268.12435570000002
20
-183
10
-262.92820319999998
20
-183
10
-262.92820319999998
20
-177
10
-268.12435570000002
20
-177
10
-268.12435570000002
20
-169.00000000000003
10
-276.16025400000001
20
-169.00000000000003
10
-276.16025400000001
20
-166
10
-282.16025400000001
20
-166
10
-282.16025400000001
20
-169.00000000000003
10
-288.16025400000001
20
-169.00000000000003
10
-288.16025400000001
20
-166
10
-294.16025400000001
20
-166
10
-294.16025400000001
20
-169.00000000000003
10
-300.16025400000001
20
-169.00000000000003
10
-300.16025400000001
20
-166
10
-306.16025400000001
20
-166
10
-306.16025400000001
20
-169.00000000000003
10
-312.16025400000001
20
-169.00000000000003
10
-312.16025400000001
20
-166
10
-318.16025400000001
20
-166
10
-318.16025400000001
20
-169.00000000000003
10
-324.16025400000001
20
-169.00000000000003
10
-324.16025400000001
20
-166
10
-330.16025400000001
20
-166
10
-330.16025400000001
20
-169.00000000000003
10
-336.16025400000007
20
-169.00000000000003
10
-336.16025400000007
20
-166
10
-342.16025400000001
20
-166
10
-342.16025400000001
20
-169.00000000000003
10
-348.16025400000001
20
-169.00000000000003
10
-348.16025400000001
20
-166
10
-354.16025400000001
20
-166
10
-354.16025400000001
20
-169.00000000000003
10
-360.16025400000001
20
-169.00000000000003
10
-360.16025400000001
20
-166
10
-366.16025400000007
20
-166
10
-366.16025400000007
20
-169.00000000000003
10
-372.16025400000001
20
-169.00000000000003
10
-372.16025400000001
20
-166
10
-378.16025400000001
20
-166
10
-378.16025400000001
20
-169.00000000000003
10
-391.39230480000003
20
-169.00000000000003
10
-391.39230480000003
20
-177
10
-386.19615240000002
20
-177
10
-386.19615240000002
20
-183
10
-391.39230480000003
20
-183
10
-391.39230480000003
20
-189.00000000000003
10
-386.19615240000002
20
-189.00000000000003
10
-386.19615240000002
20
-195
10
-391.39230480000003
20
-195
10
-391.39230480000003
20
-201
10
-386.19615240000002
20
-201
10
-386.19615240000002
20
-207.00000000000003
10
-391.39230480000003
20
-207.00000000000003
10
-391.39230480000003
20
-213
10
-386.19615240000002
20
-213
10
-386.19615240000002
20
-219.00000000000003
10
-391.39230480000003
20
-219.00000000000003
10
-391.39230480000003
20
-225
10
-386.19615240000002
20
-225
10
-386.19615240000002
20
-231
10
-391.39230480000003
20
-231
10
-391.39230480000003
20
-237.00000000000003
10
-386.19615240000002
20
-237.00000000000003
10
-386.19615240000002
20
-243
10
-391.39230480000003
20
-243
10
-391.39230480000003
20
-249.00000000000003
10
-386.19615240000002
20
-249.00000000000003
10
-386.19615240000002
20
-255
10
-391.39230480000003
20
-255
10
-391.39230480000003
20
-261
10
-386.19615240000002
20
-261
10
-386.19615240000002
20
-267
10
-391.39230480000003
20
-267
10
-391.39230480000003
20
-273
10
-386.19615240000002
20
-273
10
-386.19615240000002
20
-279
10
-391.39230480000003
20
-279
10
-391.39230480000003
20
-285
10
-386.19615240000002
20
-285
10
-386.19615240000002
20
-291
10
-391.39230480000003
20
-291
10
-391.39230480000003
20
-297
10
-386.19615240000002
20
-297
10
-386.19615240000002
20
-303
10
-391.39230480000003
20
-303
10
-391.39230480000003
20
-309
10
-386.19615240000002
20
-309
10
-386.19615240000002
20
-315
10
-391.39230480000003
20
-315
0
LWPOLYLINE
5
109
100
AcDbEntity
8
0
100
AcDbPolyline
90
140
70
1
43
0.0
10
-309.66025405000005
20
-133
10
-309.66025405000005
20
-163
10
-268.12435570000002
20
-163
10
-268.12435570000002
20
-152
10
-262.92820319999998
20
-152
10
-262.92820319999998
20
-146
10
-268.12435570000002
20
-146
10
-268.12435570000002
20
-140
10
-262.92820319999998
20
-140
10
-262.92820319999998
20
-134
10
-268.12435570000002
20
-134
10
-268.12435570000002
20
-128
10
-262.92820319999998
20
-128
10
-262.92820319999998
20
-122.00000000000001
10
-268.12435570000002
20
-122.00000000000001
10
-268.12435570000002
20
-116.00000000000001
10
-262.92820319999998
20
-116.00000000000001
10
-262.92820319999998
20
-110
10
-268.12435570000002
20
-110
10
-268.12435570000002
20
-104
10
-262.92820319999998
20
-104
10
-262.92820319999998
20
-98
10
-268.12435570000002
20
-98
10
-268.12435570000002
20
-92.000000000000014
10
-262.92820319999998
20
-92.000000000000014
10
-262.92820319999998
20
-86
10
-268.12435570000002
20
-86
10
-268.12435570000002
20
-80
10
-262.92820319999998
20
-80
10
-262.92820319999998
20
-74
10
-268.12435570000002
20
-74
10
-268.12435570000002
20
-68
10
-262.92820319999998
20
-68
10
-262.92820319999998
20
-62
10
-268.12435570000002
20
-62
10
-268.12435570000002
20
-56.000000000000007
10
-262.92820319999998
20
-56.000000000000007
10
-262.92820319999998
20
-50
10
-268.12435570000002
20
-50
10
-268.12435570000002
20
-44
10
-262.92820319999998
20
-44
10
-262.92820319999998
20
-38.000000000000007
10
-268.12435570000002
20
-38.000000000000007
10
-268.12435570000002
20
-31.999999999999993
10
-262.92820319999998
20
-31.999999999999993
10
-262.92820319999998
20
-25.999999999999996
10
-268.12435570000002
20
-25.999999999999996
10
-268.12435570000002
20
-20
10
-262.92820319999998
20
-20
10
-262.92820319999998
20
-14.000000000000004
10
-268.12435570000002
20
-14.000000000000004
10
-268.12435570000002
20
-5.9999999999999964
10
-276.16025400000001
20
-5.9999999999999964
10
-276.16025400000001
20
-3.0000000000000071
10
-282.16025400000001
20
-3.0000000000000071
10
-282.16025400000001
20
-5.9999999999999964
10
-288.16025400000001
20
-5.9999999999999964
10
-288.16025400000001
20
-3.0000000000000071
10
-294.16025400000001
20
-3.0000000000000071
10
-294.16025400000001
20
-5.9999999999999964
10
-300.16025400000001
20
-5.9999999999999964
10
-300.16025400000001
20
-3.0000000000000071
10
-306.16025400000001
20
-3.0000000000000071
10
-306.16025400000001
20
-5.9999999999999964
10
-312.16025400000001
20
-5.9999999999999964
10
-312.16025400000001
20
-3.0000000000000071
10
-318.16025400000001
20
-3.0000000000000071
10
-318.16025400000001
20
-5.9999999999999964
10
-324.16025400000001
20
-5.9999999999999964
10
-324.16025400000001
20
-3.0000000000000071
10
-330.16025400000001
20
-3.0000000000000071
10
-330.16025400000001
20
-5.9999999999999964
10
-336.16025400000007
20
-5.9999999999999964
10
-336.16025400000007
20
-3.0000000000000071
10
-342.16025400000001
20
-3.0000000000000071
10
-342.16025400000001
20
-5.9999999999999964
10
-348.16025400000001
20
-5.9999999999999964
10
-348.16025400000001
20
-3.0000000000000071
10
-354.16025400000001
20
-3.0000000000000071
10
-354.16025400000001
20
-5.9999999999999964
10
-360.16025400000001
20
-5.9999999999999964
10
-360.16025400000001
20
-3.0000000000000071
10
-366.16025400000007
20
-3.0000000000000071
10
-366.16025400000007
20
-5.9999999999999964
10
-372.16025400000001
20
-5.9999999999999964
10
-372.16025400000001
20
-3.0000000000000071
10
-378.16025400000001
20
-3.0000000000000071
10
-378.16025400000001
20
-5.9999999999999964
10
-391.39230480000003
20
-5.9999999999999964
10
-391.39230480000003
20
-14.000000000000004
10
-386.19615240000002
20
-14.000000000000004
10
-386.19615240000002
20
-20
10
-391.39230480000003
20
-20
10
-391.39230480000003
20
-25.999999999999996
10
-386.19615240000002
20
-25.999999999999996
10
-386.19615240000002
20
-31.999999999999993
10
-391.39230480000003
20
-31.999999999999993
10
-391.39230480000003
20
-38.000000000000007
10
-386.19615240000002
20
-38.000000000000007
10
-386.19615240000002
20
-44
10
-391.39230480000003
20
-44
10
-391.39230480000003
20
-50
10
-386.19615240000002
20
-50
10
-386.19615240000002
20
-56.000000000000007
10
-391.39230480000003
20
-56.000000000000007
10
-391.39230480000003
20
-62
10
-386.19615240000002
20
-62
10
-386.19615240000002
20
-68
10
-391.39230480000003
20
-68
10
-391.39230480000003
20
-74
10
-386.19615240000002
20
-74
10
-386.19615240000002
20
-80
10
-391.39230480000003
20
-80
10
-391.39230480000003
20
-86
10
-386.19615240000002
20
-86
10
-386.19615240000002
20
-92.000000000000014
10
-391.39230480000003
20
-92.000000000000014
10
-391.39230480000003
20
-98
10
-386.19615240000002
20
-98
10
-386.19615240000002
20
-104
10
-391.39230480000003
20
-104
10
-391.39230480000003
20
-110
10
-386.19615240000002
20
-110
10
-386.19615240000002
20
-116.00000000000001
10
-391.39230480000003
20
-116.00000000000001
10
-391.39230480000003
20
-122.00000000000001
10
-386.19615240000002
20
-122.00000000000001
10
-386.19615240000002
20
-128
10
-391.39230480000003
20
-128
10
-391.39230480000003
20
-134
10
-386.19615240000002
20
-134
10
-386.19615240000002
20
-140
10
-391.39230480000003
20
-140
10
-391.39230480000003
20
-146
10
-386.19615240000002
20
-146
10
-386.19615240000002
20
-152
10
-391.39230480000003
20
-152
10
-391.39230480000003
20
-163
10
-344.66025405000005
20
-163
10
-344.66025405000005
20
-133
0
LWPOLYLINE
5
110
100
AcDbEntity
8
0
100
AcDbPolyline
90
136
70
1
43
0.0
10
-204.69615239999999
20
-3.0000000000000071
10
-210.69615240000005
20
-3.0000000000000071
10
-210.69615240000005
20
-5.9999999999999964
10
-216.69615240000002
20
-5.9999999999999964
10
-216.69615240000002
20
-3.0000000000000071
10
-222.69615240000005
20
-3.0000000000000071
10
-222.69615240000005
20
-5.9999999999999964
10
-228.69615240000002
20
-5.9999999999999964
10
-228.69615240000002
20
-3.0000000000000071
10
-234.69615240000002
20
-3.0000000000000071
10
-234.69615240000002
20
-5.9999999999999964
10
-240.69615240000005
20
-5.9999999999999964
10
-240.69615240000005
20
-3.0000000000000071
10
-246.69615240000002
20
-3.0000000000000071
10
-246.69615240000002
20
-5.9999999999999964
10
-259.92820319999998
20
-5.9999999999999964
10
-259.92820319999998
20
-14.000000000000004
10
-254.7320508
20
-14.000000000000004
10
-254.7320508
20
-20
10
-259.92820319999998
20
-20
10
-259.92820319999998
20
-25.999999999999996
10
-254.7320508
20
-25.999999999999996
10
-254.7320508
20
-31.999999999999993
10
-259.92820319999998
20
-31.999999999999993
10
-259.92820319999998
20
-38.000000000000007
10
-254.7320508
20
-38.000000000000007
10
-254.7320508
20
-44
10
-259.92820319999998
20
-44
10
-259.92820319999998
20
-50
10
-254.7320508
20
-50
10
-254.7320508
20
-56.000000000000014
10
-259.92820319999998
20
-56.000000000000014
10
-259.92820319999998
20
-61.999999999999993
10
-254.7320508
20
-61.999999999999993
10
-254.7320508
20
-68
10
-259.92820319999998
20
-68
10
-259.92820319999998
20
-74
10
-254.7320508
20
-74
10
-254.7320508
20
-80
10
-259.92820319999998
20
-80
10
-259.92820319999998
20
-86
10
-254.7320508
20
-86
10
-254.7320508
20
-92.000000000000014
10
-259.92820319999998
20
-92.000000000000014
10
-259.92820319999998
20
-98
10
-254.7320508
20
-98
10
-254.7320508
20
-104
10
-259.92820319999998
20
-104
10
-259.92820319999998
20
-110
10
-254.7320508
20
-110
10
-254.7320508
20
-116.00000000000001
10
-259.92820319999998
20
-116.00000000000001
10
-259.92820319999998
20
-122.00000000000001
10
-254.7320508
20
-122.00000000000001
10
-254.7320508
20
-128
10
-259.92820319999998
20
-128
10
-259.92820319999998
20
-134
10
-254.7320508
20
-134
10
-254.7320508
20
-140
10
-259.92820319999998
20
-140
10
-259.92820319999998
20
-146
10
-254.7320508
20
-146
10
-254.7320508
20
-152
10
-259.92820319999998
20
-152
10
-259.92820319999998
20
-163
10
-136.66025400000001
20
-163
10
-136.66025400000001
20
-152
10
-131.46410159999999
20
-152
10
-131.46410159999999
20
-146
10
-136.66025400000001
20
-146
10
-136.66025400000001
20
-140
10
-131.46410159999999
20
-140
10
-131.46410159999999
20
-134
10
-136.66025400000001
20
-134
10
-136.66025400000001
20
-128
10
-131.46410159999999
20
-128
10
-131.46410159999999
20
-122.00000000000001
10
-136.66025400000001
20
-122.00000000000001
10
-136.66025400000001
20
-116.00000000000001
10
-131.46410159999999
20
-116.00000000000001
10
-131.46410159999999
20
-110
10
-136.66025400000001
20
-110
10
-136.66025400000001
20
-104
10
-131.46410159999999
20
-104
10
-131.46410159999999
20
-98
10
-136.66025400000001
20
-98
10
-136.66025400000001
20
-92.000000000000014
10
-131.46410159999999
20
-92.000000000000014
10
-131.46410159999999
20
-86
10
-136.66025400000001
20
-86
10
-136.66025400000001
20
-80
10
-131.46410159999999
20
-80
10
-131.46410159999999
20
-74
10
-136.66025400000001
20
-74
10
-136.66025400000001
20
-68
10
-131.46410159999999
20
-68
10
-131.46410159999999
20
-61.999999999999993
10
-136.66025400000001
20
-61.999999999999993
10
-136.66025400000001
20
-56.000000000000014
10
-131.46410159999999
20
-56.000000000000014
10
-131.46410159999999
20
-50
10
-136.66025400000001
20
-50
10
-136.66025400000001
20
-44
10
-131.46410159999999
20
-44
10
-131.46410159999999
20
-38.000000000000007
10
-136.66025400000001
20
-38.000000000000007
10
-136.66025400000001
20
-31.999999999999993
10
-131.46410159999999
20
-31.999999999999993
10
-131.46410159999999
20
-25.999999999999996
10
-136.66025400000001
20
-25.999999999999996
10
-136.66025400000001
20
-20
10
-131.46410159999999
20
-20
10
-131.46410159999999
20
-14.000000000000004
10
-136.66025400000001
20
-14.000000000000004
10
-136.66025400000001
20
-5.9999999999999964
10
-144.69615239999999
20
-5.9999999999999964
10
-144.69615239999999
20
-3.0000000000000071
10
-150.69615239999999
20
-3.0000000000000071
10
-150.69615239999999
20
-5.9999999999999964
10
-156.69615239999999
20
-5.9999999999999964
10
-156.69615239999999
20
-3.0000000000000071
10
-162.69615240000002
20
-3.0000000000000071
10
-162.69615240000002
20
-5.9999999999999964
10
-168.69615239999999
20
-5.9999999999999964
10
-168.69615239999999
20
-3.0000000000000071
10
-174.69615239999999
20
-3.0000000000000071
10
-174.69615239999999
20
-5.9999999999999964
10
-180.69615240000002
20
-5.9999999999999964
10
-180.69615240000002
20
-3.0000000000000071
10
-186.69615239999999
20
-3.0000000000000071
10
-186.69615239999999
20
-5.9999999999999964
10
-192.69615240000002
20
-5.9999999999999964
10
-192.69615240000002
20
-3.0000000000000071
10
-198.69615240000002
20
-3.0000000000000071
10
-198.69615240000002
20
-5.9999999999999964
10
-204.69615239999999
20
-5.9999999999999964
0
LWPOLYLINE
5
111
100
AcDbEntity
8
0
100
AcDbPolyline
90
136
70
1
43
0.0
10
-180.69615240000002
20
-3.0000000000000004
10
-186.69615239999999
20
-3.0000000000000071
10
-186.69615239999999
20
-5.9999999999999964
10
-192.69615240000002
20
-5.9999999999999964
10
-192.69615240000002
20
-3.0000000000000071
10
-198.69615240000002
20
-3.0000000000000071
10
-198.69615240000002
20
-5.9999999999999964
10
-204.69615239999999
20
-5.9999999999999964
10
-204.69615239999999
20
-3.0000000000000071
10
-210.69615240000005
20
-3.0000000000000071
10
-210.69615240000005
20
-5.9999999999999964
10
-216.69615240000002
20
-5.9999999999999964
10
-216.69615240000002
20
-3.0000000000000071
10
-222.69615240000005
20
-3.0000000000000071
10
-222.69615240000005
20
-5.9999999999999964
10
-228.69615240000002
20
-5.9999999999999964
10
-228.69615240000002
20
-3.0000000000000071
10
-234.69615240000002
20
-3.0000000000000071
10
-234.69615240000002
20
-5.9999999999999964
10
-240.69615240000005
20
-5.9999999999999964
10
-240.69615240000005
20
-3.0000000000000071
10
-246.69615240000002
20
-3.0000000000000071
10
-246.69615240000002
20
-5.9999999999999964
10
-259.92820319999998
20
-5.9999999999999964
10
-259.92820319999998
20
-14.000000000000004
10
-254.7320508
20
-14.000000000000004
10
-254.7320508
20
-20
10
-259.92820319999998
20
-20
10
-259.92820319999998
20
-25.999999999999996
10
-254.7320508
20
-25.999999999999996
10
-254.7320508
20
-31.999999999999993
10
-259.92820319999998
20
-31.999999999999993
10
-259.92820319999998
20
-38.000000000000007
10
-254.7320508
20
-38.000000000000007
10
-254.7320508
20
-44
10
-259.92820319999998
20
-44
10
-259.92820319999998
20
-50
10
-254.7320508
20
-50
10
-254.7320508
20
-56.000000000000014
10
-259.92820319999998
20
-56.000000000000014
10
-259.92820319999998
20
-61.999999999999993
10
-254.7320508
20
-61.999999999999993
10
-254.7320508
20
-68
10
-259.92820319999998
20
-68
10
-259.92820319999998
20
-74
10
-254.7320508
20
-74
10
-254.7320508
20
-80
10
-259.92820319999998
20
-80
10
-259.92820319999998
20
-86
10
-254.7320508
20
-86
10
-254.7320508
20
-92.000000000000014
10
-259.92820319999998
20
-92.000000000000014
10
-259.92820319999998
20
-98
10
-254.7320508
20
-98
10
-254.7320508
20
-104
10
-259.92820319999998
20
-104
10
-259.92820319999998
20
-110
10
-254.7320508
20
-110
10
-254.7320508
20
-116.00000000000001
10
-259.92820319999998
20
-116.00000000000001
10
-259.92820319999998
20
-122.00000000000001
10
-254.7320508
20
-122.00000000000001
10
-254.7320508
20
-128
10
-259.92820319999998
20
-128
10
-259.92820319999998
20
-134
10
-254.7320508
20
-134
10
-254.7320508
20
-140
10
-259.92820319999998
20
-140
10
-259.92820319999998
20
-146
10
-254.7320508
20
-146
10
-254.7320508
20
-152
10
-259.92820319999998
20
-152
10
-259.92820319999998
20
-163
10
-136.66025400000001
20
-163
10
-136.66025400000001
20
-152
10
-131.46410159999999
20
-152
10
-131.46410159999999
20
-146
10
-136.66025400000001
20
-146
10
-136.66025400000001
20
-140
10
-131.46410159999999
20
-140
10
-131.46410159999999
20
-134
10
-136.66025400000001
20
-134
10
-136.66025400000001
20
-128
10
-131.46410159999999
20
-128
10
-131.46410159999999
20
-122.00000000000001
10
-136.66025400000001
20
-122.00000000000001
10
-136.66025400000001
20
-116.00000000000001
10
-131.46410159999999
20
-116.00000000000001
10
-131.46410159999999
20
-110
10
-136.66025400000001
20
-110
10
-136.66025400000001
20
-104
10
-131.46410159999999
20
-104
10
-131.46410159999999
20
-98
10
-136.66025400000001
20
-98
10
-136.66025400000001
20
-92.000000000000014
10
-131.46410159999999
20
-92.000000000000014
10
-131.46410159999999
20
-86
10
-136.66025400000001
20
-86
10
-136.66025400000001
20
-80
10
-131.46410159999999
20
-80
10
-131.46410159999999
20
-74
10
-136.66025400000001
20
-74
10
-136.66025400000001
20
-68
10
-131.46410159999999
20
-68
10
-131.46410159999999
20
-62
10
-136.66025400000001
20
-62
10
-136.66025400000001
20
-56.000000000000007
10
-131.46410159999999
20
-56.000000000000007
10
-131.46410159999999
20
-50
10
-136.66025400000001
20
-50
10
-136.66025400000001
20
-44
10
-131.46410159999999
20
-44
10
-131.46410159999999
20
-38
10
-136.66025400000001
20
-38
10
-136.66025400000001
20
-32
10
-131.46410159999999
20
-32
10
-131.46410159999999
20
-25.999999999999996
10
-136.66025400000001
20
-25.999999999999996
10
-136.66025400000001
20
-20
10
-131.46410159999999
20
-20
10
-131.46410159999999
20
-14.000000000000002
10
-136.66025400000001
20
-14.000000000000002
10
-136.66025400000001
20
-6.0000000000000009
10
-144.69615239999999
20
-6.0000000000000009
10
-144.69615239999999
20
-3.0000000000000004
10
-150.69615239999999
20
-3.0000000000000004
10
-150.69615239999999
20
-6.0000000000000009
10
-156.69615239999999
20
-6.0000000000000009
10
-156.69615239999999
20
-3.0000000000000004
10
-162.69615240000002
20
-3.0000000000000004
10
-162.69615240000002
20
-6.0000000000000009
10
-168.69615239999999
20
-6.0000000000000009
10
-168.69615239999999
20
-3.0000000000000004
10
-174.69615239999999
20
-3.0000000000000004
10
-174.69615239999999
20
-6.0000000000000009
10
-180.69615240000002
20
-6.0000000000000009
0
CIRCLE
5
112
100
AcDbEntity
8
0
100
AcDbCircle
10
-25.73205080000001
20
-133
30
0
40
2.5
210
0
220
-0
230
1
0
CIRCLE
5
113
100
AcDbEntity
8
0
100
AcDbCircle
10
-102.7320508
20
-133
30
0
40
2.5
210
0
220
-0
230
1
0
CIRCLE
5
114
100
AcDbEntity
8
0
100
AcDbCircle
10
-102.7320508
20
-28.000000000000007
30
0
40
2.5
210
0
220
-0
230
1
0
CIRCLE
5
115
100
AcDbEntity
8
0
100
AcDbCircle
10
-25.73205080000001
20
-28.000000000000007
30
0
40
2.4999999999999956
210
0
220
-0
230
1
0
LWPOLYLINE
5
116
100
AcDbEntity
8
0
100
AcDbPolyline
90
136
70
1
43
0.0
10
-128.46410159999999
20
-163
10
-5.1961524000000026
20
-163
10
-5.1961524000000026
20
-152
10
0
20
-152
10
0
20
-146
10
-5.1961524000000026
20
-146
10
-5.1961524000000026
20
-140
10
0
20
-140
10
0
20
-134
10
-5.1961524000000026
20
-134
10
-5.1961524000000026
20
-128
10
0
20
-128
10
0
20
-122.00000000000001
10
-5.1961524000000026
20
-122.00000000000001
10
-5.1961524000000026
20
-116.00000000000001
10
0
20
-116.00000000000001
10
0
20
-110
10
-5.1961524000000026
20
-110
10
-5.1961524000000026
20
-104
10
0
20
-104
10
0
20
-98
10
-5.1961524000000026
20
-98
10
-5.1961524000000026
20
-92.000000000000014
10
0
20
-92.000000000000014
10
0
20
-86
10
-5.1961524000000026
20
-86
10
-5.1961524000000026
20
-80
10
0
20
-80
10
0
20
-74
10
-5.1961524000000026
20
-74
10
-5.1961524000000026
20
-68
10
0
20
-68
10
0
20
-62
10
-5.1961524000000026
20
-62
10
-5.1961524000000026
20
-56.000000000000007
10
0
20
-56.000000000000007
10
0
20
-50
10
-5.1961524000000026
20
-50
10
-5.1961524000000026
20
-44
10
0
20
-44
10
0
20
-38.000000000000007
10
-5.1961524000000026
20
-38.000000000000007
10
-5.1961524000000026
20
-31.999999999999993
10
0
20
-31.999999999999993
10
0
20
-25.999999999999996
10
-5.1961524000000026
20
-25.999999999999996
10
-5.1961524000000026
20
-20
10
0
20
-20
10
0
20
-14.000000000000004
10
-5.1961524000000026
20
-14.000000000000004
10
-5.1961524000000026
20
-5.9999999999999964
10
-13.232050800000001
20
-5.9999999999999964
10
-13.232050800000001
20
-3.0000000000000071
10
-19.2320508
20
-3.0000000000000071
10
-19.2320508
20
-5.9999999999999964
10
-25.232050800000003
20
-5.9999999999999964
10
-25.232050800000003
20
-3.0000000000000071
10
-31.232050800000003
20
-3.0000000000000071
10
-31.232050800000003
20
-5.9999999999999964
10
-37.232050799999996
20
-5.9999999999999964
10
-37.232050799999996
20
-3.0000000000000071
10
-43.232050800000003
20
-3.0000000000000071
10
-43.232050800000003
20
-5.9999999999999964
10
-49.232050799999996
20
-5.9999999999999964
10
-49.232050799999996
20
-3.0000000000000071
10
-55.232050799999996
20
-3.0000000000000071
10
-55.232050799999996
20
-5.9999999999999964
10
-61.232050799999989
20
-5.9999999999999964
10
-61.232050799999989
20
-3.0000000000000071
10
-67.232050799999996
20
-3.0000000000000071
10
-67.232050799999996
20
-5.9999999999999964
10
-73.232050799999996
20
-5.9999999999999964
10
-73.232050799999996
20
-3.0000000000000071
10
-79.232050799999996
20
-3.0000000000000071
10
-79.232050799999996
20
-5.9999999999999964
10
-85.232050799999996
20
-5.9999999999999964
10
-85.232050799999996
20
-3.0000000000000071
10
-91.232050799999996
20
-3.0000000000000071
10
-91.232050799999996
20
-5.9999999999999964
10
-97.232050799999996
20
-5.9999999999999964
10
-97.232050799999996
20
-3.0000000000000071
10
-103.23205080000001
20
-3.0000000000000071
10
-103.23205080000001
20
-5.9999999999999964
10
-109.23205080000001
20
-5.9999999999999964
10
-109.23205080000001
20
-3.0000000000000071
10
-115.2320508
20
-3.0000000000000071
10
-115.2320508
20
-5.9999999999999964
10
-128.46410159999999
20
-5.9999999999999964
10
-128.46410159999999
20
-14.000000000000004
10
-123.2679492
20
-14.000000000000004
10
-123.2679492
20
-20
10
-128.46410159999999
20
-20
10
-128.46410159999999
20
-25.999999999999996
10
-123.2679492
20
-25.999999999999996
10
-123.2679492
20
-31.999999999999993
10
-128.46410159999999
20
-31.999999999999993
10
-128.46410159999999
20
-38.000000000000007
10
-123.2679492
20
-38.000000000000007
10
-123.2679492
20
-44
10
-128.46410159999999
20
-44
10
-128.46410159999999
20
-50
10
-123.2679492
20
-50
10
-123.2679492
20
-56.000000000000007
10
-128.46410159999999
20
-56.000000000000007
10
-128.46410159999999
20
-62
10
-123.2679492
20
-62
10
-123.2679492
20
-68
10
-128.46410159999999
20
-68
10
-128.46410159999999
20
-74
10
-123.2679492
20
-74
10
-123.2679492
20
-80
10
-128.46410159999999
20
-80
10
-128.46410159999999
20
-86
10
-123.2679492
20
-86
10
-123.2679492
20
-92.000000000000014
10
-128.46410159999999
20
-92.000000000000014
10
-128.46410159999999
20
-98
10
-123.2679492
20
-98
10
-123.2679492
20
-104
10
-128.46410159999999
20
-104
10
-128.46410159999999
20
-110
10
-123.2679492
20
-110
10
-123.2679492
20
-116.00000000000001
10
-128.46410159999999
20
-116.00000000000001
10
-128.46410159999999
20
-122.00000000000001
10
-123.2679492
20
-122.00000000000001
10
-123.2679492
20
-128
10
-128.46410159999999
20
-128
10
-128.46410159999999
20
-134
10
-123.2679492
20
-134
10
-123.2679492
20
-140
10
-128.46410159999999
20
-140
10
-128.46410159999999
20
-146
10
-123.2679492
20
-146
10
-123.2679492
20
-152
10
-128.46410159999999
20
-152
0
ENDSEC
0
SECTION
2
OBJECTS
0
DICTIONARY
5
C
100
AcDbDictionary
3
ACAD_GROUP
350
D
3
ACAD_MLINESTYLE
350
17
0
DICTIONARY
5
D
100
AcDbDictionary
0
DICTIONARY
5
1A
330
C
100
AcDbDictionary
0
DICTIONARY
5
17
100
AcDbDictionary
0
ENDSEC
0
EOF
