0
SECTION
2
HEADER
9
$INSUNITS
70
4
9
$ACADVER
1
AC1014
9
$HANDSEED
5
FFFF
0
ENDSEC
0
SECTION
2
TABLES
0
TABLE
2
VPORT
5
8
100
AcDbSymbolTable
0
ENDTAB
0
TABLE
2
LTYPE
5
5
100
AcDbSymbolTable
0
LTYPE
5
14
100
AcDbSymbolTableRecord
100
AcDbLinetypeTableRecord
2
BYBLOCK
70
0
0
LTYPE
5
15
100
AcDbSymbolTableRecord
100
AcDbLinetypeTableRecord
2
BYLAYER
70
0
0
LTYPE
5
16
100
AcDbSymbolTableRecord
100
AcDbLinetypeTableRecord
2
DASHED
70
0
3
Dashed __ __ __ __ __ __ __ __ __ __ __ __ __ _
72
65
73
2
40
0.75
49
0.5
74
0
49
-0.25
74
0
0
ENDTAB
0
TABLE
2
LAYER
5
2
100
AcDbSymbolTable
70
3
0
LAYER
5
50
100
AcDbSymbolTableRecord
100
AcDbLayerTableRecord
2
1
70
0
62
7
6
DASHED
0
LAYER
5
51
100
AcDbSymbolTableRecord
100
AcDbLayerTableRecord
2
0
70
0
62
7
6
CONTINUOUS
0
ENDTAB
0
TABLE
2
STYLE
5
3
100
AcDbSymbolTable
70
1
0
STYLE
5
11
100
AcDbSymbolTableRecord
100
AcDbTextStyleTableRecord
2
STANDARD
70
0
0
ENDTAB
0
TABLE
2
VIEW
5
6
100
AcDbSymbolTable
70
0
0
ENDTAB
0
TABLE
2
UCS
5
7
100
AcDbSymbolTable
70
0
0
ENDTAB
0
TABLE
2
APPID
5
9
100
AcDbSymbolTable
70
2
0
APPID
5
12
100
AcDbSymbolTableRecord
100
AcDbRegAppTableRecord
2
ACAD
70
0
0
ENDTAB
0
TABLE
2
DIMSTYLE
5
A
100
AcDbSymbolTable
70
1
0
ENDTAB
0
TABLE
2
BLOCK_RECORD
5
1
100
AcDbSymbolTable
70
1
0
BLOCK_RECORD
5
1F
100
AcDbSymbolTableRecord
100
AcDbBlockTableRecord
2
*MODEL_SPACE
0
BLOCK_RECORD
5
1B
100
AcDbSymbolTableRecord
100
AcDbBlockTableRecord
2
*PAPER_SPACE
0
ENDTAB
0
ENDSEC
0
SECTION
2
BLOCKS
0
BLOCK
5
20
100
AcDbEntity
100
AcDbBlockBegin
2
*MODEL_SPACE
0
ENDBLK
5
21
100
AcDbEntity
100
AcDbBlockEnd
0
BLOCK
5
1C
100
AcDbEntity
100
AcDbBlockBegin
2
*PAPER_SPACE
0
ENDBLK
5
1D
100
AcDbEntity
100
AcDbBlockEnd
0
ENDSEC
0
SECTION
2
ENTITIES
0
LWPOLYLINE
5
100
100
AcDbEntity
8
0
100
AcDbPolyline
90
4
70
1
43
0.0
10
56.999999999999467
20
60.050000000000772
10
96.99999999999946
20
60.050000000000772
10
96.999999999999474
20
38.050000000000786
10
56.999999999999488
20
38.050000000000786
0
LWPOLYLINE
5
101
100
AcDbEntity
8
0
100
AcDbPolyline
90
4
70
1
43
0.0
10
27.731878155306461
20
-60.4669780457006
10
22.731878155306454
20
-69.127232083544996
10
9.741497098539881
20
-61.627232083544996
10
14.741497098539892
20
-52.9669780457006
0
LWPOLYLINE
5
102
100
AcDbEntity
8
0
100
AcDbPolyline
90
4
70
1
43
0.0
10
-66.231878155305836
20
6.21697804570017
10
-71.231878155305836
20
14.877232083544563
10
-58.241497098539263
20
22.377232083544563
10
-53.241497098539263
20
13.71697804570017
0
CIRCLE
5
103
100
AcDbEntity
8
0
100
AcDbCircle
10
-0.92356641090885017
20
75.099663947855561
30
0
40
0.99999999999999711
210
0
220
-0
230
1
0
CIRCLE
5
104
100
AcDbEntity
8
0
100
AcDbCircle
10
59.499999999999346
20
68.050000000000779
30
0
40
1.0000000000000053
210
0
220
-0
230
1
0
CIRCLE
5
105
100
AcDbEntity
8
0
100
AcDbCircle
10
-12.423566410908835
20
95.018248234897641
30
0
40
1.0000000000000009
210
0
220
-0
230
1
0
CIRCLE
5
106
100
AcDbEntity
8
0
100
AcDbCircle
10
33.717449740468702
20
95.099663947855561
30
0
40
1.0000000000000009
210
0
220
-0
230
1
0
CIRCLE
5
107
100
AcDbEntity
8
0
100
AcDbCircle
10
-99.21744974044033
20
-18.349663947856843
30
0
40
0.99999999999999645
210
0
220
-0
230
1
0
CIRCLE
5
108
100
AcDbEntity
8
0
100
AcDbCircle
10
65.499999999971735
20
-76.749999999998664
30
0
40
0.99999999999999645
210
0
220
-0
230
1
0
CIRCLE
5
109
100
AcDbEntity
8
0
100
AcDbCircle
10
22.217449740468712
20
115.01824823489763
30
0
40
0.99999999999999645
210
0
220
-0
230
1
0
CIRCLE
5
110
100
AcDbEntity
8
0
100
AcDbCircle
10
-76.076433589062816
20
-58.268248234898941
30
0
40
0.99999999999999645
210
0
220
-0
230
1
0
CIRCLE
5
111
100
AcDbEntity
8
0
100
AcDbCircle
10
11.683028727532033
20
-115.86440065762926
30
0
40
0.99999999999999867
210
2.4651903288156619e-32
220
-0
230
1
0
CIRCLE
5
112
100
AcDbEntity
8
0
100
AcDbCircle
10
-64.576433589062816
20
-38.349663947856868
30
0
40
0.99999999999999645
210
0
220
-0
230
1
0
CIRCLE
5
113
100
AcDbEntity
8
0
100
AcDbCircle
10
-55.774063383722677
20
36.503511525173124
30
0
40
0.99999999999999645
210
0
220
-0
230
1
0
CIRCLE
5
114
100
AcDbEntity
8
0
100
AcDbCircle
10
-21.225936616276627
20
-96.864400657629233
30
0
40
1.0000000000000009
210
0
220
-0
230
1
0
CIRCLE
5
115
100
AcDbEntity
8
0
100
AcDbCircle
10
29.183028727532051
20
-85.553511525173903
30
0
40
1.0000000000000053
210
0
220
-0
230
1
0
CIRCLE
5
116
100
AcDbEntity
8
0
100
AcDbCircle
10
-3.7259366162766092
20
-66.553511525173889
30
0
40
1.0000000000000031
210
2.4651903288156619e-32
220
-0
230
1
0
CIRCLE
5
117
100
AcDbEntity
8
0
100
AcDbCircle
10
-73.274063383722677
20
66.814400657628482
30
0
40
0.99999999999999645
210
0
220
-0
230
1
0
CIRCLE
5
118
100
AcDbEntity
8
0
100
AcDbCircle
10
-110.71744974044034
20
-38.26824823489892
30
0
40
0.99999999999999645
210
0
220
-0
230
1
0
CIRCLE
5
119
100
AcDbEntity
8
0
100
AcDbCircle
10
-106.18302872753134
20
47.814400657628497
30
0
40
0.99999999999999645
210
0
220
-0
230
1
0
CIRCLE
5
120
100
AcDbEntity
8
0
100
AcDbCircle
10
94.499999999999346
20
30.050000000000775
30
0
40
0.99999999999999645
210
0
220
-0
230
1
0
CIRCLE
5
121
100
AcDbEntity
8
0
100
AcDbCircle
10
59.499999999999346
20
30.050000000000775
30
0
40
0.99999999999999645
210
0
220
-0
230
1
0
CIRCLE
5
122
100
AcDbEntity
8
0
100
AcDbCircle
10
-88.683028727531337
20
17.503511525173131
30
0
40
0.99999999999999645
210
0
220
-0
230
1
0
CIRCLE
5
123
100
AcDbEntity
8
0
100
AcDbCircle
10
94.499999999999346
20
68.050000000000779
30
0
40
0.99999999999999645
210
0
220
-0
230
1
0
CIRCLE
5
124
100
AcDbEntity
8
0
100
AcDbCircle
10
88.499999999971735
20
-76.749999999998664
30
0
40
0.99999999999999645
210
0
220
-0
230
1
0
LWPOLYLINE
5
125
100
AcDbEntity
8
0
100
AcDbPolyline
90
4
70
1
43
0.0
10
-80.504825497255894
20
19.338448015712146
10
-100.50482549725587
20
53.979464167089681
10
-81.452266613998248
20
64.979464167089688
10
-61.452266613998233
20
30.338448015712135
0
LWPOLYLINE
5
126
100
AcDbEntity
8
0
100
AcDbPolyline
90
4
70
1
43
0.0
10
38.499999999999439
20
54.250000000000433
10
48.499999999999446
20
54.250000000000433
10
48.499999999999446
20
39.250000000000433
10
38.499999999999432
20
39.250000000000433
0
LWPOLYLINE
5
127
100
AcDbEntity
8
0
100
AcDbPolyline
90
4
70
1
43
0.0
10
23.504825497256473
20
-79.388448015712925
10
3.504825497256463
20
-114.02946416709042
10
-15.54773338600118
20
-103.02946416709045
10
4.4522666139988454
20
-68.38844801571291
0
CIRCLE
5
128
100
AcDbEntity
8
0
100
AcDbCircle
10
65.499999999971735
20
-36.749999999998664
30
0
40
0.99999999999999645
210
0
220
-0
230
1
0
CIRCLE
5
129
100
AcDbEntity
8
0
100
AcDbCircle
10
88.499999999971735
20
-36.749999999998664
30
0
40
0.99999999999999645
210
0
220
-0
230
1
0
CIRCLE
5
130
100
AcDbEntity
8
0
100
AcDbCircle
10
87.152090601835411
20
95.109817359742294
30
0
40
1.6499999999999737
210
0
220
-0
230
1
0
CIRCLE
5
131
100
AcDbEntity
8
0
100
AcDbCircle
10
87.152090601835411
20
-95.10981735974228
30
0
40
1.6499999999999737
210
0
220
-0
230
1
0
CIRCLE
5
132
100
AcDbEntity
8
0
100
AcDbCircle
10
-11.243213863655253
20
128.51052251271165
30
0
40
1.6499999999999726
210
0
220
-0
230
1
0
CIRCLE
5
133
100
AcDbEntity
8
0
100
AcDbCircle
10
-102.34370097866366
20
78.531083810577428
30
0
40
1.6499999999999737
210
0
220
-0
230
1
0
CIRCLE
5
134
100
AcDbEntity
8
0
100
AcDbCircle
10
-102.34370097866363
20
-78.5310838105774
30
0
40
1.6499999999999737
210
0
220
-0
230
1
0
CIRCLE
5
135
100
AcDbEntity
8
0
100
AcDbCircle
10
62.500000000000128
20
-108.25317547305481
30
0
40
2.9999999999999893
210
0
220
-0
230
1
0
CIRCLE
5
136
100
AcDbEntity
8
0
100
AcDbCircle
10
-125
20
-1.1213252548714081e-13
30
0
40
2.9999999999999893
210
0
220
-0
230
1
0
CIRCLE
5
137
100
AcDbEntity
8
0
100
AcDbCircle
10
62.5
20
108.25317547305488
30
0
40
2.9999999999999893
210
0
220
-8.4337583545850493e-80
230
1
0
CIRCLE
5
138
100
AcDbEntity
8
0
100
AcDbCircle
10
-11.243213863655262
20
-128.51052251271167
30
0
40
1.6499999999999726
210
0
220
-0
230
1
0
LWPOLYLINE
5
139
100
AcDbEntity
8
0
100
AcDbPolyline
90
24
70
1
43
0.0
10
-85.417845601073481
20
89.248048454132416
10
-93.862307575728479
20
103.87428563681837
42
0.44438722602839509
10
-93.786406306426812
20
-103.9428207820329
10
-85.331243060693282
20
-89.298048454133422
10
-78.403039830417768
20
-93.298048454133422
10
-45.503039830417407
20
-36.313576885116788
10
-10.342408436770523
20
-56.613576885116203
10
-43.242408436770802
20
-113.59804845413272
10
-34.582154398926434
20
-118.59804845413277
10
-43.026616373581433
20
-133.22428563681865
42
0.44438722602839509
10
136.91032649146706
20
-29.249999999998266
10
119.99999999999997
20
-29.249999999998249
10
119.99999999999997
20
-21.249999999998241
10
54.199999999999278
20
-21.249999999998241
10
54.199999999999406
20
19.350000000000325
10
119.99999999999997
20
19.350000000000342
10
119.99999999999997
20
29.350000000000342
10
136.88892394931003
20
29.350000000000342
42
0.44438722602839492
10
-43.123920185040134
20
133.19282078203119
10
-34.668756939306611
20
118.5480484541317
10
-41.59696016958209
20
114.5480484541317
10
-8.6969601695817911
20
57.563576885115033
10
-43.85759156322883
20
37.263576885115874
10
-76.757591563229099
20
94.248048454132416
0
ENDSEC
0
SECTION
2
OBJECTS
0
DICTIONARY
5
C
100
AcDbDictionary
3
ACAD_GROUP
350
D
3
ACAD_MLINESTYLE
350
17
0
DICTIONARY
5
D
100
AcDbDictionary
0
DICTIONARY
5
1A
330
C
100
AcDbDictionary
0
DICTIONARY
5
17
100
AcDbDictionary
0
ENDSEC
0
EOF
